<svg width="19" height="19" viewBox="0 0 19 19" fill="none" xmlns="http://www.w3.org/2000/svg">
<path fill-rule="evenodd" clip-rule="evenodd" d="M9.5 7.91618C10.3745 7.91618 11.0833 8.62506 11.0833 9.49951C11.0833 10.374 10.3745 11.0828 9.5 11.0828C8.62555 11.0828 7.91667 10.374 7.91667 9.49951C7.91667 8.62506 8.62555 7.91618 9.5 7.91618ZM3.95833 7.91602C4.83278 7.91602 5.54167 8.6249 5.54167 9.49935C5.54167 10.3738 4.83278 11.0827 3.95833 11.0827C3.08388 11.0827 2.375 10.3738 2.375 9.49935C2.375 8.6249 3.08388 7.91602 3.95833 7.91602ZM15.0417 7.91618C15.9161 7.91618 16.625 8.62506 16.625 9.49951C16.625 10.374 15.9161 11.0828 15.0417 11.0828C14.1672 11.0828 13.4583 10.374 13.4583 9.49951C13.4583 8.62506 14.1672 7.91618 15.0417 7.91618Z" fill="white"/>
</svg>
