<svg width="96" height="96" viewBox="0 0 96 96" fill="none" xmlns="http://www.w3.org/2000/svg">
<path d="M47.2713 6.04878L37.9851 1V21.105L47.2713 24.3506L56.6025 21.105V1L47.2713 6.04878Z" fill="#3A36DB" stroke="#3A36DB" stroke-width="0.0901568"/>
<path d="M47.2275 22.5922L14.5006 6.22876V26.469L47.2275 43.6889L81.1716 26.469V6.22876L47.2275 22.5922Z" fill="#3A36DB" stroke="#3A36DB" stroke-width="0.0901568"/>
<path d="M47.8136 13.4409L27.2128 3.20813V22.5017L47.8136 32.6443L67.6932 21.8706V3.20813L47.8136 13.4409Z" fill="#3A36DB" stroke="#3A36DB" stroke-width="0.0901568"/>
<path d="M7.66974 84.2095L1.20901 59.7635H5.99344L10.3937 79.2155L15.5623 59.7635H20.4864L25.5153 79.2155L29.9156 59.7635H34.735L28.0996 84.2095H22.7914L17.9371 66.0845L12.9431 84.2095H7.66974ZM44.3399 84.6285C42.6636 84.6285 41.1502 84.2444 39.7999 83.4761C38.4728 82.7078 37.4135 81.6485 36.6219 80.2981C35.8536 78.9245 35.4694 77.3413 35.4694 75.5486C35.4694 73.7559 35.8652 72.1844 36.6568 70.834C37.4484 69.4604 38.5077 68.3894 39.8348 67.6211C41.1852 66.8528 42.6985 66.4686 44.3748 66.4686C46.0278 66.4686 47.5178 66.8528 48.8449 67.6211C50.1953 68.3894 51.2546 69.4604 52.0229 70.834C52.8145 72.1844 53.2103 73.7559 53.2103 75.5486C53.2103 77.3413 52.8145 78.9245 52.0229 80.2981C51.2546 81.6485 50.1953 82.7078 48.8449 83.4761C47.4946 84.2444 45.9929 84.6285 44.3399 84.6285ZM44.3399 80.7521C45.504 80.7521 46.5167 80.3214 47.3782 79.46C48.2396 78.5752 48.6703 77.2715 48.6703 75.5486C48.6703 73.8257 48.2396 72.5336 47.3782 71.6722C46.5167 70.7874 45.5156 70.3451 44.3748 70.3451C43.1874 70.3451 42.163 70.7874 41.3016 71.6722C40.4634 72.5336 40.0443 73.8257 40.0443 75.5486C40.0443 77.2715 40.4634 78.5752 41.3016 79.46C42.163 80.3214 43.1758 80.7521 44.3399 80.7521ZM57.207 84.2095V66.8877H61.1533L61.5025 69.8212C62.038 68.7968 62.8063 67.982 63.8075 67.3766C64.8319 66.7713 66.0309 66.4686 67.4045 66.4686C69.5465 66.4686 71.2111 67.1438 72.3985 68.4942C73.5859 69.8445 74.1796 71.8235 74.1796 74.4311V84.2095H69.7094V74.8501C69.7094 73.3601 69.4068 72.2193 68.8014 71.4277C68.1961 70.6361 67.2532 70.2403 65.9727 70.2403C64.7155 70.2403 63.6794 70.6827 62.8645 71.5674C62.073 72.4521 61.6772 73.686 61.6772 75.2692V84.2095H57.207ZM85.6133 84.6285C84.0766 84.6285 82.7263 84.3841 81.5622 83.8952C80.3981 83.383 79.4668 82.6845 78.7684 81.7998C78.0699 80.9151 77.6508 79.8907 77.5111 78.7266H82.0162C82.1559 79.4018 82.5284 79.9838 83.1337 80.4727C83.7623 80.9384 84.5656 81.1712 85.5434 81.1712C86.5212 81.1712 87.2313 80.9733 87.6737 80.5775C88.1393 80.1817 88.3722 79.7277 88.3722 79.2155C88.3722 78.4705 88.0462 77.9699 87.3943 77.7138C86.7424 77.4344 85.8344 77.1667 84.6703 76.9106C83.9253 76.7476 83.1687 76.5497 82.4003 76.3169C81.632 76.0841 80.9219 75.7931 80.2701 75.4438C79.6414 75.0713 79.1292 74.6057 78.7334 74.0469C78.3377 73.4649 78.1398 72.7548 78.1398 71.9166C78.1398 70.38 78.7451 69.0879 79.9557 68.0402C81.1897 66.9925 82.9126 66.4686 85.1243 66.4686C87.1731 66.4686 88.8029 66.9459 90.0135 67.9005C91.2475 68.855 91.9809 70.1705 92.2137 71.8468H87.988C87.7319 70.5663 86.7657 69.926 85.0894 69.926C84.2513 69.926 83.5994 70.089 83.1337 70.4149C82.6914 70.7409 82.4702 71.1483 82.4702 71.6372C82.4702 72.1494 82.8078 72.5569 83.483 72.8595C84.1581 73.1622 85.0545 73.4416 86.172 73.6977C87.3827 73.9771 88.4886 74.2914 89.4897 74.6406C90.5141 74.9665 91.329 75.4671 91.9343 76.1423C92.5396 76.7942 92.8423 77.7371 92.8423 78.971C92.8656 80.042 92.5862 81.0082 92.0041 81.8696C91.4221 82.7311 90.5839 83.4062 89.4897 83.8952C88.3954 84.3841 87.1033 84.6285 85.6133 84.6285Z" fill="#3A36DB"/>
</svg>
